nColumns=19
nRows=40
DataType=double
version=3
OpenSimVersion=4.5
endheader
time	ground_force_1_vx	ground_force_1_vy	ground_force_1_vz	ground_force_1_px	ground_force_1_py	ground_force_1_pz	ground_moment_1_mx	ground_moment_1_my	ground_moment_1_mz	ground_force_2_vx	ground_force_2_vy	ground_force_2_vz	ground_force_2_px	ground_force_2_py	ground_force_2_pz	ground_moment_2_mx	ground_moment_2_my	ground_moment_2_mz
0.772	0	0	0	0	0	0	0	0	0	-28.4429424375946	518.5	19.6152014008461	0.362981574486234	5.65485307927598e-17	0.123829168650227	0	1.95183010112633	1.19515124291191e-16
0.773	0	0	0	0	0	0	0	0	0	-27.9662545597853	518.670593261719	19.0698763918518	0.363186446629089	5.65838713987237e-17	0.124608666589668	0	2.00569696126815	1.2281351818383e-16
0.774	0	0	0	0	0	0	0	0	0	-28.1615879786406	519.015380859375	19.0457364860274	0.363138047471099	5.65786521991245e-17	0.12605055642188	0	2.0122332134012	1.23213748196488e-16
0.775	0	0	0	0	0	0	0	0	0	-27.9464329317459	519.956665039062	18.890309105708	0.363160318734759	5.660311945598e-17	0.12700762962818	0	2.05551729014557	1.25864133498441e-16
0.776	0	0	0	0	0	0	0	0	0	-27.7299501010721	519.185241699219	18.6300614773325	0.363450639359077	5.66267404387637e-17	0.127978523538906	0	2.09456997214229	1.28255420598711e-16
0.777	0	0	0	0	0	0	0	0	0	-27.9062570972312	519.360900878906	18.3644131364718	0.363651829519504	5.6657166989145e-17	0.128838274096261	0	2.07418508334623	1.27007206157957e-16
0.778	0	0	0	0	0	0	0	0	0	-27.7786470536582	519.533081054688	18.056475842045	0.364063509282093	5.67001152654655e-17	0.129493529350188	0	2.06910367012672	1.26696059336237e-16
0.779	0	0	0	0	0	0	0	0	0	-27.5639258202193	519.614440917969	18.2302797228199	0.364266179025173	5.6725645160545e-17	0.130433248357307	0	2.16339940032078	1.32470007544007e-16
0.78	0	0	0	0	0	0	0	0	0	-27.9767771409226	520.911804199219	17.4823805609963	0.363866212821084	5.67270596703875e-17	0.131766801492826	0	2.03356915253511	1.24520197674846e-16
0.781	0	0	0	0	0	0	0	0	0	-27.520468555192	521.078063964844	17.3963603092491	0.363957331356521	5.6736608238976e-17	0.132967515368051	0	2.1593824761757	1.32224041879173e-16
0.782	0	0	0	0	0	0	0	0	0	-27.2377206092819	522.018859863281	17.1325937927847	0.36389271847177	5.67412434943145e-17	0.13424846973798	0	2.27263022289147	1.39158466405479e-16
0.783	0	0	0	0	0	0	0	0	0	-27.5022617810517	521.081176757812	16.9556903425666	0.364368515980763	5.67877734187941e-17	0.134845232238541	0	2.23338903485381	1.36755636639225e-16
0.784	0	0	0	0	0	0	0	0	0	-27.3721911438187	522.281921386719	16.6033824032123	0.364277837188412	5.679667355127e-17	0.136056535879126	0	2.25098374603408	1.37833001975668e-16
0.785	0	0	0	0	0	0	0	0	0	-27.3294138555451	522.199279785156	16.143610403058	0.364579501264662	5.68216291207625e-17	0.137005634334873	0	2.23922641126973	1.37113072856384e-16
0.786	0	0	0	0	0	0	0	0	0	-27.2882919205571	522.204040527344	15.5960784270347	0.364768649964047	5.68598159374907e-17	0.137738650125073	0	2.19464102474451	1.34383005311542e-16
0.787	0	0	0	0	0	0	0	0	0	-26.9192883433057	522.799682617188	15.4864983808153	0.364924069161625	5.68733671857073e-17	0.138873995281237	0	2.27262436533801	1.39158107733774e-16
0.788	0	0	0	0	0	0	0	0	0	-27.1180581273344	522.890380859375	15.1986579809376	0.365107856020494	5.69097043410123e-17	0.139637218334861	0	2.26331439484491	1.38588036455548e-16
0.789	0	0	0	0	0	0	0	0	0	-27.0106639630875	522.720153808594	14.8483326722642	0.365546345787242	5.69413321020839e-17	0.140477351632919	0	2.25361682540591	1.37994231586898e-16
0.79	0	0	0	0	0	0	0	0	0	-26.6153802603853	524.687866210938	14.4754708713148	0.365223757806335	5.69086389961085e-17	0.142367924406127	0	2.37504387943384	1.45429494239158e-16
0.791	0	0	0	0	0	0	0	0	0	-27.03315366397	524.868957519531	14.165113658525	0.364947999059315	5.69454715628111e-17	0.14312305677764	0	2.30184281585833	1.40947221829062e-16
0.792	0	0	0	0	0	0	0	0	0	-26.8799059421499	525.215148925781	13.4656454393222	0.365237559041663	5.69609999621155e-17	0.144226112606151	0	2.24447603042687	1.37434519321261e-16
0.793	0	0	0	0	0	0	0	0	0	-26.5768370489935	525.727661132812	13.180491874813	0.36540904494529	5.69845633619992e-17	0.145197946916999	0	2.31932839108054	1.42017904515418e-16
0.794	0	0	0	0	0	0	0	0	0	-26.5334591150231	525.901794433594	12.786589207561	0.365515191766911	5.69974798508094e-17	0.146343658480962	0	2.29169773829108	1.4032601499057e-16
0.795	0	0	0	0	0	0	0	0	0	-26.3596433277257	526.845703125	12.3917618111272	0.365347084628241	5.7003285412268e-17	0.147605500301526	-3.73626998836382e-20	2.32478544041023	1.4694267280734e-14
0.796	0	0	0	0	0	0	0	0	0	-26.1230267990882	526.672546386719	12.2383104990946	0.365704883805872	5.70393397224479e-17	0.148373342566588	0	2.38585057473015	1.46091213479358e-16
0.797	0	0	0	0	0	0	0	0	0	-26.3637863566157	527.279418945312	11.7531404702264	0.365715626810345	5.70619315682856e-17	0.149361043559106	0	2.35899202666416	1.44446601733419e-16
0.798	0	0	0	0	0	0	0	0	0	-26.0829555202878	527.962463378906	11.5766971376218	0.365983724775625	5.7089133497426e-17	0.150273456177769	0	2.38779745369101	1.46210425433744e-16
0.799	0	0	0	0	0	0	0	0	0	-26.0643558956671	527.795654296875	11.1606958654906	0.366050131914727	5.71274151016243e-17	0.151004923971107	0	2.34619987885587	1.43663308590037e-16
0.8	0	0	0	0	0	0	0	0	0	-26.2377362353827	528.058837890625	10.5898374186178	0.366242335086696	5.71393735048713e-17	0.152166282259723	0	2.32054886754694	1.42092637145318e-16
0.801	0	0	0	0	0	0	0	0	0	-26.1076945976628	529.600341796875	10.3891465293604	0.366223976143712	5.71454585246824e-17	0.153423560179043	0	2.37027425649014	1.45137439065601e-16
0.802	0	0	0	0	0	0	0	0	0	-25.4982730927676	530.537048339844	10.1054023283907	0.366239130845288	5.7149468474929e-17	0.154714726556095	0	2.55213550340461	1.56273228761739e-16
0.803	0	0	0	0	0	0	0	0	0	-26.0422347705344	531.74609375	9.79348076572787	0.365906554703264	5.71461369320288e-17	0.156125788614939	0	2.44284364457653	1.49581032507405e-16
0.804	0	0	0	0	0	0	0	0	0	-25.890547931545	532.090698242188	9.35560445383426	0.365961211970583	5.71623360079606e-17	0.15721789146292	0	2.47370030184501	1.51470457835216e-16
0.805	0	0	0	0	0	0	0	0	0	-25.7849712448036	531.83642578125	8.91735799791598	0.366308570064218	5.7208686419029e-17	0.157817585639966	0	2.47824097530964	1.51748493896438e-16
0.806	0	0	0	0	0	0	0	0	0	-25.7630609051935	532.951049804688	8.67359794522321	0.366388016995847	5.7213231559479e-17	0.159100011697709	0	2.48779741832331	1.52333657263835e-16
0.807	0	0	0	0	0	0	0	0	0	-25.7445010555159	532.442138671875	8.14878529451047	0.36668381789739	5.72605666008566e-17	0.159683625641503	0	2.41639477779715	1.47961506505283e-16
0.808	0	0	0	0	0	0	0	0	0	-25.679290425883	533.040649414062	8.03691755727826	0.366933194036578	5.72690032208741e-17	0.160902499014988	0	2.47703027029647	1.51674359595484e-16
0.809	0	0	0	0	0	0	0	0	0	-25.6157118129947	533.814453125	7.66266492434489	0.366854035332075	5.72883604916646e-17	0.161943024626808	0	2.51224669164039	1.53830743479297e-16
0.81	0	0	0	0	0	0	0	0	0	-25.7881330285089	535.532653808594	7.19780690336651	0.366764757680731	5.72798698169285e-17	0.163438341702517	0	2.54141351022951	1.5561669603062e-16
0.811	0	0	0	0	0	0	0	0	0	-25.9637281885327	536.3955078125	6.77827796817214	0.366608327327696	5.7296530098565e-17	0.164522912489745	0	2.5389470085427	1.55465666360828e-16
